# xmcd
#
# Track frame offsets:
#	150
#	21399
#	36060
#	54137
#	68406
#	87631
#	106485
#	124142
#	141140
#	157145
#	173368
#	194299
#	209646
#	228401
#	244000
#	261135
#	277743
#	295222
#	324796
#
# Disc length: 4336 seconds
#
# Revision: 0
# Processed by: cddbd v1.5.1PL0 Copyright (c) Steve Scherf et al.
# Submitted via: audiograbber 1.83.01
#
DISCID=0910ee13
DTITLE=Kenny Chesney - Top Tunes Karaoke - TT-148
DYEAR=2003
DGENRE=Karaoke
TTITLE0=A Lot of Things Different
TTITLE1=All I Need to Know
TTITLE2=Big Star
TTITLE3=Don't Happen Twice
TTITLE4=Dreams
TTITLE5=I Lost it
TTITLE6=Live Those Songs
TTITLE7=Me and You
TTITLE8=No Shoes, No Shirt, No Problems
TTITLE9=On the Coast of Somewhere Beautiful
TTITLE10=She Thinks My Tractor's Sexy
TTITLE11=She's Got it All
TTITLE12=That's Why I'm Here
TTITLE13=The Good Stuff
TTITLE14=The Tin Man
TTITLE15=When I Close My Eyes
TTITLE16=You Had Me From Hello
TTITLE17=Young
TTITLE18=Data Track
EXTD=
EXTT0=
EXTT1=
EXTT2=
EXTT3=
EXTT4=
EXTT5=
EXTT6=
EXTT7=
EXTT8=
EXTT9=
EXTT10=
EXTT11=
EXTT12=
EXTT13=
EXTT14=
EXTT15=
EXTT16=
EXTT17=
EXTT18=
PLAYORDER=
